<svg width="100" height="100" viewBox="0 0 100 100" fill="none" xmlns="http://www.w3.org/2000/svg">
  <rect width="100" height="100" fill="#111111"/>
  <path d="M50 30C38.9543 30 30 38.9543 30 50C30 61.0457 38.9543 70 50 70C61.0457 70 70 61.0457 70 50C70 38.9543 61.0457 30 50 30ZM50 65C41.7157 65 35 58.2843 35 50C35 41.7157 41.7157 35 50 35C58.2843 35 65 41.7157 65 50C65 58.2843 58.2843 65 50 65Z" fill="#8A2BE2" fill-opacity="0.5"/>
  <path d="M45 45L55 55M55 45L45 55" stroke="#FFFFFF" stroke-width="2" stroke-linecap="round"/>
</svg> 